<?xml version="1.0" encoding="UTF-8"?>
<svg width="42px" height="42px" viewBox="0 0 42 42" version="1.1" xmlns="http://www.w3.org/2000/svg" xmlns:xlink="http://www.w3.org/1999/xlink">
    <!-- Generator: Sketch 64 (93537) - https://sketch.com -->
    <title>icon_register</title>
    <desc>Created with Sketch.</desc>
    <g id="Page-1" stroke="none" stroke-width="1" fill="none" fill-rule="evenodd">
        <g id="bc211---Landing-Page" transform="translate(-446.000000, -371.000000)">
            <g id="Register-Card" transform="translate(250.000000, 347.000000)">
                <rect id="Rectangle" stroke-opacity="0.2" stroke="#777777" stroke-width="3" x="0" y="0" width="460" height="344"></rect>
                <g id="Address-Card" transform="translate(196.000000, 24.000000)">
                    <rect id="Rectangle" x="0" y="0" width="42" height="42"></rect>
                    <path d="M37.3333504,4.3333344 L4.6666688,4.3333344 C2.09270929,4.3333344 0,6.42604369 0,9.0000032 L0,32.3333472 C0,34.9073067 2.09270929,37.000016 4.6666688,37.000016 L37.3333504,37.000016 C39.9073099,37.000016 42.0000192,34.9073067 42.0000192,32.3333472 L42.0000192,9.0000032 C42.0000192,6.42604369 39.9073099,4.3333344 37.3333504,4.3333344 Z M39.6666848,32.3333472 C39.6666848,33.6166811 38.6166843,34.6666816 37.3333504,34.6666816 L4.6666688,34.6666816 C3.38333488,34.6666816 2.3333344,33.6166811 2.3333344,32.3333472 L2.3333344,9.0000032 C2.3333344,7.71666928 3.38333488,6.6666688 4.6666688,6.6666688 L37.3333504,6.6666688 C38.6166843,6.6666688 39.6666848,7.71666928 39.6666848,9.0000032 L39.6666848,32.3333472 Z M34.4166824,23.0000096 L26.250012,23.0000096 C25.9291785,23.0000096 25.6666784,23.2625097 25.6666784,23.5833432 L25.6666784,24.7500104 C25.6666784,25.0708439 25.9291785,25.333344 26.250012,25.333344 L34.4166824,25.333344 C34.7375159,25.333344 35.000016,25.0708439 35.000016,24.7500104 L35.000016,23.5833432 C35.000016,23.2625097 34.7375159,23.0000096 34.4166824,23.0000096 Z M34.4166824,18.3333408 L26.250012,18.3333408 C25.9291785,18.3333408 25.6666784,18.5958409 25.6666784,18.9166744 L25.6666784,20.0833416 C25.6666784,20.4041751 25.9291785,20.6666752 26.250012,20.6666752 L34.4166824,20.6666752 C34.7375159,20.6666752 35.000016,20.4041751 35.000016,20.0833416 L35.000016,18.9166744 C35.000016,18.5958409 34.7375159,18.3333408 34.4166824,18.3333408 Z M34.4166824,13.666672 L26.250012,13.666672 C25.9291785,13.666672 25.6666784,13.9291721 25.6666784,14.2500056 L25.6666784,15.4166728 C25.6666784,15.7375063 25.9291785,16.0000064 26.250012,16.0000064 L34.4166824,16.0000064 C34.7375159,16.0000064 35.000016,15.7375063 35.000016,15.4166728 L35.000016,14.2500056 C35.000016,13.9291721 34.7375159,13.666672 34.4166824,13.666672 Z M15.1666736,23.0000096 C18.3895917,23.0000096 21.0000096,20.3895917 21.0000096,17.1666736 C21.0000096,13.9437555 18.3895917,11.3333376 15.1666736,11.3333376 C11.9437555,11.3333376 9.3333376,13.9437555 9.3333376,17.1666736 C9.3333376,20.3895917 11.9437555,23.0000096 15.1666736,23.0000096 Z M15.166672,13.666672 C17.0989661,13.666672 18.666672,15.2343811 18.666672,17.166672 C18.666672,19.0989662 17.0989661,20.666672 15.166672,20.666672 C13.234381,20.666672 11.666672,19.0989662 11.666672,17.166672 C11.666672,15.2343811 13.234381,13.666672 15.166672,13.666672 Z M18.5791752,24.1666768 C17.1572995,24.1666768 16.8000077,24.6770937 15.1666736,24.6770937 C13.5333395,24.6770937 13.1760477,24.1666768 11.754172,24.1666768 C10.208338,24.1666768 8.70625398,24.8520938 7.83125358,26.1645944 C7.30625334,26.9448031 7.0000032,27.8854285 7.0000032,28.8989706 L7.0000032,30.5833464 C7.0000032,30.9041799 7.26250332,31.1666768 7.5833368,31.1666768 L8.750004,31.1666768 C9.07083748,31.1666768 9.3333376,30.9041799 9.3333376,30.5833464 L9.3333376,28.8989706 C9.3333376,28.3885537 9.48646267,27.8927202 9.7708378,27.4698033 C10.1791713,26.8645947 10.9229217,26.5073029 11.7614637,26.5073029 C12.6656308,26.5073029 13.2781311,27.0177198 15.1739653,27.0177198 C17.0625078,27.0177198 17.6750081,26.5073029 18.5864668,26.5073029 C19.4250089,26.5073029 20.1687592,26.8718864 20.5770927,27.4698033 C20.8614679,27.8927202 21.0145929,28.3885537 21.0145929,28.8989706 L21.0145929,30.5833464 C21.0145929,30.9041799 21.2770931,31.1666768 21.5979265,31.1666768 L22.7645937,31.1666768 C23.0854272,31.1666768 23.3479273,30.9041799 23.3479273,30.5833464 L23.3479273,28.8989706 C23.3479273,27.8854285 23.0416772,26.9448031 22.516677,26.1645944 C21.6198015,24.8520938 20.1177175,24.1666768 18.5791752,24.1666768 L18.5791752,24.1666768 Z" id="Shape" fill="#CE0026" fill-rule="nonzero"></path>
                </g>
            </g>
        </g>
    </g>
</svg>