<?xml version="1.0" encoding="UTF-8"?>
<svg width="42px" height="42px" viewBox="0 0 42 42" version="1.1" xmlns="http://www.w3.org/2000/svg" xmlns:xlink="http://www.w3.org/1999/xlink">
    <!-- Generator: Sketch 64 (93537) - https://sketch.com -->
    <title>icon_alert</title>
    <desc>Created with Sketch.</desc>
    <g id="Page-1" stroke="none" stroke-width="1" fill="none" fill-rule="evenodd">
        <g id="bc211---Landing-Page" transform="translate(-939.000000, -389.000000)" fill="#CE0026" fill-rule="nonzero">
            <g id="Coronavirus-Information" transform="translate(730.000000, 347.000000)">
                <g id="icon_alert" transform="translate(209.000000, 42.000000)">
                    <path d="M20.9999872,3.281248 C30.7306102,3.281248 38.7187264,11.1623955 38.7187264,20.9999872 C38.7187264,30.7855711 30.7936922,38.7187264 20.9999872,38.7187264 C11.2182588,38.7187264 3.281248,30.7976297 3.281248,20.9999872 C3.281248,11.2216221 11.205626,3.281248 20.9999872,3.281248 M20.9999872,0.6562496 C9.76524014,0.6562496 0.6562496,9.76852139 0.6562496,20.9999872 C0.6562496,32.2380155 9.76524014,41.3437248 20.9999872,41.3437248 C32.2347343,41.3437248 41.3437248,32.2380155 41.3437248,20.9999872 C41.3437248,9.76852139 32.2347343,0.6562496 20.9999872,0.6562496 Z M20.0574487,10.4999936 L21.9424437,10.4999936 C22.5021425,10.4999936 22.9492946,10.9660949 22.9259977,11.5253836 L22.3517793,25.3066252 C22.329795,25.8339218 21.896014,26.249984 21.3682253,26.249984 L20.6316671,26.249984 C20.1039604,26.249984 19.6700974,25.8338397 19.648113,25.3066252 L19.0738946,11.5253836 C19.0506798,10.9660949 19.4977498,10.4999936 20.0574487,10.4999936 Z M20.9999872,27.890608 C19.7314567,27.890608 18.7031136,28.9189511 18.7031136,30.1874816 C18.7031136,31.4560121 19.7314567,32.4843552 20.9999872,32.4843552 C22.2685177,32.4843552 23.2968608,31.4560121 23.2968608,30.1874816 C23.2968608,28.9189511 22.2685177,27.890608 20.9999872,27.890608 Z" id="Shape"></path>
                </g>
            </g>
        </g>
    </g>
</svg>